<?xml version="1.0" encoding="iso-8859-1"?>
<!-- Generator: Adobe Illustrator 19.0.0, SVG Export Plug-In . SVG Version: 6.00 Build 0)  -->
<svg version="1.1" id="Layer_1" xmlns="http://www.w3.org/2000/svg" xmlns:xlink="http://www.w3.org/1999/xlink" x="0px" y="0px"
	 viewBox="0 0 512 512" style="enable-background:new 0 0 512 512;" xml:space="preserve">
<path style="fill:#507C5C;" d="M256,512c-6.752,0-13.505-1.446-19.795-4.34c-57.908-26.642-192.593-98.32-192.593-188.28V90.063
	c0-7.814,3.789-15.207,10.137-19.773c6.303-4.534,14.448-5.773,21.79-3.313c11.481,3.848,23.499,5.798,35.724,5.798
	c39.581,0,75.503-20.236,96.095-54.132C214.344,7.143,226.984,0,240.346,0h31.306c13.364,0,26.004,7.143,32.99,18.645
	c20.591,33.895,56.513,54.132,96.095,54.132c12.223,0,24.243-1.95,35.725-5.798c7.342-2.46,15.486-1.221,21.787,3.313
	c6.348,4.567,10.137,11.96,10.137,19.773v60.005c0,8.118-6.582,14.698-14.698,14.698c-8.116,0-14.698-6.58-14.698-14.698V96.943
	c-12.41,3.472-25.246,5.23-38.253,5.23c-49.937,0-95.253-25.52-121.22-68.266c-1.715-2.824-4.656-4.509-7.866-4.509h-31.306
	c-3.21,0-6.151,1.686-7.866,4.511c-25.967,42.745-71.283,68.266-121.219,68.266c-13.011,0-25.845-1.756-38.255-5.23v222.436
	c0,59.601,90.648,122.544,175.483,161.574c4.772,2.194,10.25,2.196,15.02,0c84.833-39.03,175.483-101.971,175.483-161.574v-93.592
	c0-8.118,6.582-14.698,14.698-14.698c8.116,0,14.698,6.58,14.698,14.698v93.592c0,89.96-134.685,161.637-192.591,188.279
	C269.506,510.552,262.753,512,256,512z"/>
<path style="fill:#CFF09E;" d="M238.641,336.281l-77.721-38.86c-14.735-7.367-20.707-25.284-13.34-40.019l0,0
	c7.367-14.735,25.284-20.707,40.019-13.34l56.151,28.076l70.703-88.377c10.292-12.864,29.063-14.949,41.926-4.658l0,0
	c12.864,10.292,14.949,29.061,4.658,41.925l-85.765,107.207C266.484,339.219,251.22,342.571,238.641,336.281z"/>
<path style="fill:#507C5C;" d="M251.965,354.13c-6.866,0-13.747-1.626-19.9-4.703l-77.719-38.859
	c-21.959-10.98-30.893-37.779-19.913-59.739c7.595-15.188,22.863-24.621,39.85-24.621c6.854,0,13.731,1.627,19.89,4.708
	l45.525,22.763l63.28-79.1c8.497-10.621,21.176-16.712,34.788-16.712c10.059,0,19.932,3.466,27.797,9.76
	c9.286,7.43,15.124,18.032,16.438,29.852c1.314,11.82-2.055,23.445-9.485,32.733L286.75,337.419
	C278.252,348.039,265.573,354.13,251.965,354.13z M174.283,255.604c-5.781,0-10.975,3.209-13.558,8.371
	c-3.73,7.462-0.695,16.568,6.767,20.3l77.719,38.859c2.122,1.061,4.395,1.599,6.752,1.599c4.628,0,8.941-2.071,11.828-5.679
	l85.767-107.208c2.525-3.156,3.669-7.105,3.223-11.122c-0.447-4.017-2.43-7.62-5.587-10.143c-3.426-2.741-7.02-3.317-9.433-3.317
	c-4.631,0-8.945,2.071-11.833,5.679l-70.703,88.377c-4.329,5.413-11.85,7.065-18.051,3.964l-56.151-28.076
	C178.898,256.145,176.628,255.604,174.283,255.604z"/>
<g>
</g>
<g>
</g>
<g>
</g>
<g>
</g>
<g>
</g>
<g>
</g>
<g>
</g>
<g>
</g>
<g>
</g>
<g>
</g>
<g>
</g>
<g>
</g>
<g>
</g>
<g>
</g>
<g>
</g>
</svg>
